# Rhino

mtllib cone.mtl
usemtl Default
v 0 -0.2 0.4
v 0 -1 2
v 0.3827 -0.9239 2
v 0.7071 -0.7071 2
v 0.9239 -0.3827 2
v 0.2 0 0.4
v 1 0 2
v 0.9239 0.3827 2
v 0.1414 0.1414 0.4
v 0.7071 0.7071 2
v 0.3827 0.9239 2
v 0 0.2 0.4
v 0 1 2
v -0.3827 0.9239 2
v -0.1414 0.1414 0.4
v -0.7071 0.7071 2
v -0.9239 0.3827 2
v -0.2 0 0.4
v -1 0 2
v -0.9239 -0.3827 2
v -0.7071 -0.7071 2
v -0.3827 -0.9239 2
v 0 -0.2 0.4
v 0 -1 2
v 0.07362 -0.186 0.4
v 0.1414 -0.1414 0.4
v 0.186 -0.07362 0.4
v 0.186 0.07362 0.4
v 0.07362 0.186 0.4
v -0.07362 0.186 0.4
v -0.186 0.07362 0.4
v -0.186 -0.07362 0.4
v -0.1414 -0.1414 0.4
v -0.07362 -0.186 0.4
v 0 -0.2 0.4
v 0 -1 2
v 0.3827 -0.9239 2
v 0.7071 -0.7071 2
v 0.9239 -0.3827 2
v 0.2 0 0.4
v 1 0 2
v 0.9239 0.3827 2
v 0.1414 0.1414 0.4
v 0.7071 0.7071 2
v 0.3827 0.9239 2
v 0 0.2 0.4
v 0 1 2
v -0.3827 0.9239 2
v -0.1414 0.1414 0.4
v -0.7071 0.7071 2
v -0.9239 0.3827 2
v -0.2 0 0.4
v -1 0 2
v -0.9239 -0.3827 2
v -0.7071 -0.7071 2
v -0.3827 -0.9239 2
v 0 -0.2 0.4
v 0 -1 2
v 0.07362 -0.186 0.4
v 0.1414 -0.1414 0.4
v 0.186 -0.07362 0.4
v 0.186 0.07362 0.4
v 0.07362 0.186 0.4
v -0.07362 0.186 0.4
v -0.186 0.07362 0.4
v -0.186 -0.07362 0.4
v -0.1414 -0.1414 0.4
v -0.07362 -0.186 0.4
vt 0 0
vt 0 1
vt 0.0625 1
vt 0.125 1
vt 0.1875 1
vt 0.25 0
vt 0.25 1
vt 0.3125 1
vt 0.375 0
vt 0.375 1
vt 0.4375 1
vt 0.5 0
vt 0.5 1
vt 0.5625 1
vt 0.625 0
vt 0.625 1
vt 0.6875 1
vt 0.75 0
vt 0.75 1
vt 0.8125 1
vt 0.875 1
vt 0.9375 1
vt 1 0
vt 1 1
vt 0.05999 0
vt 0.125 0
vt 0.19 0
vt 0.31 0
vt 0.44 0
vt 0.56 0
vt 0.69 0
vt 0.81 0
vt 0.875 0
vt 0.94 0
vt 0 0
vt 0 1
vt 0.0625 1
vt 0.125 1
vt 0.1875 1
vt 0.25 0
vt 0.25 1
vt 0.3125 1
vt 0.375 0
vt 0.375 1
vt 0.4375 1
vt 0.5 0
vt 0.5 1
vt 0.5625 1
vt 0.625 0
vt 0.625 1
vt 0.6875 1
vt 0.75 0
vt 0.75 1
vt 0.8125 1
vt 0.875 1
vt 0.9375 1
vt 1 0
vt 1 1
vt 0.05999 0
vt 0.125 0
vt 0.19 0
vt 0.31 0
vt 0.44 0
vt 0.56 0
vt 0.69 0
vt 0.81 0
vt 0.875 0
vt 0.94 0
vn 0 -0.8944 -0.4472
vn 0 -0.8944 -0.4472
vn 0.3423 -0.8263 -0.4472
vn 0.6325 -0.6325 -0.4472
vn 0.8263 -0.3423 -0.4472
vn 0.8944 0 -0.4472
vn 0.8944 0 -0.4472
vn 0.8263 0.3423 -0.4472
vn 0.6325 0.6325 -0.4472
vn 0.6325 0.6325 -0.4472
vn 0.3423 0.8263 -0.4472
vn 0 0.8944 -0.4472
vn 0 0.8944 -0.4472
vn -0.3423 0.8263 -0.4472
vn -0.6325 0.6325 -0.4472
vn -0.6325 0.6325 -0.4472
vn -0.8263 0.3423 -0.4472
vn -0.8944 0 -0.4472
vn -0.8944 0 -0.4472
vn -0.8263 -0.3423 -0.4472
vn -0.6325 -0.6325 -0.4472
vn -0.3423 -0.8263 -0.4472
vn 0 -0.8944 -0.4472
vn 0 -0.8944 -0.4472
vn 0.3292 -0.8316 -0.4472
vn 0.6325 -0.6325 -0.4472
vn 0.8316 -0.3292 -0.4472
vn 0.8316 0.3292 -0.4472
vn 0.3292 0.8316 -0.4472
vn -0.3292 0.8316 -0.4472
vn -0.8316 0.3292 -0.4472
vn -0.8316 -0.3292 -0.4472
vn -0.6325 -0.6325 -0.4472
vn -0.3292 -0.8316 -0.4472
vn 0 0.8944 0.4472
vn 0 0.8944 0.4472
vn -0.3423 0.8263 0.4472
vn -0.6325 0.6325 0.4472
vn -0.8263 0.3423 0.4472
vn -0.8944 0 0.4472
vn -0.8944 0 0.4472
vn -0.8263 -0.3423 0.4472
vn -0.6325 -0.6325 0.4472
vn -0.6325 -0.6325 0.4472
vn -0.3423 -0.8263 0.4472
vn 0 -0.8944 0.4472
vn 0 -0.8944 0.4472
vn 0.3423 -0.8263 0.4472
vn 0.6325 -0.6325 0.4472
vn 0.6325 -0.6325 0.4472
vn 0.8263 -0.3423 0.4472
vn 0.8944 0 0.4472
vn 0.8944 0 0.4472
vn 0.8263 0.3423 0.4472
vn 0.6325 0.6325 0.4472
vn 0.3423 0.8263 0.4472
vn 0 0.8944 0.4472
vn 0 0.8944 0.4472
vn -0.3292 0.8316 0.4472
vn -0.6325 0.6325 0.4472
vn -0.8316 0.3292 0.4472
vn -0.8316 -0.3292 0.4472
vn -0.3292 -0.8316 0.4472
vn 0.3292 -0.8316 0.4472
vn 0.8316 -0.3292 0.4472
vn 0.8316 0.3292 0.4472
vn 0.6325 0.6325 0.4472
vn 0.3292 0.8316 0.4472
f 1/1/1 25/25/25 3/3/3 2/2/2
f 26/26/26 27/27/27 5/5/5 4/4/4
f 25/25/25 26/26/26 4/4/4 3/3/3
f 6/6/6 28/28/28 8/8/8 7/7/7
f 9/9/9 29/29/29 11/11/11 10/10/10
f 28/28/28 9/9/9 10/10/10 8/8/8
f 27/27/27 6/6/6 7/7/7 5/5/5
f 29/29/29 12/12/12 13/13/13 11/11/11
f 30/30/30 15/15/15 16/16/16 14/14/14
f 31/31/31 18/18/18 19/19/19 17/17/17
f 15/15/15 31/31/31 17/17/17 16/16/16
f 32/32/32 33/33/33 21/21/21 20/20/20
f 34/34/34 23/23/23 24/24/24 22/22/22
f 33/33/33 34/34/34 22/22/22 21/21/21
f 18/18/18 32/32/32 20/20/20 19/19/19
f 14/14/14 13/13/13 12/12/12 30/30/30
f 35/35/35 36/36/36 37/37/37 59/59/59
f 60/60/60 38/38/38 39/39/39 61/61/61
f 59/59/59 37/37/37 38/38/38 60/60/60
f 40/40/40 41/41/41 42/42/42 62/62/62
f 43/43/43 44/44/44 45/45/45 63/63/63
f 62/62/62 42/42/42 44/44/44 43/43/43
f 61/61/61 39/39/39 41/41/41 40/40/40
f 63/63/63 45/45/45 47/47/47 46/46/46
f 64/64/64 48/48/48 50/50/50 49/49/49
f 65/65/65 51/51/51 53/53/53 52/52/52
f 49/49/49 50/50/50 51/51/51 65/65/65
f 66/66/66 54/54/54 55/55/55 67/67/67
f 68/68/68 56/56/56 58/58/58 57/57/57
f 67/67/67 55/55/55 56/56/56 68/68/68
f 52/52/52 53/53/53 54/54/54 66/66/66
f 48/48/48 64/64/64 46/46/46 47/47/47
