# Rhino

mtllib book.mtl
usemtl Default
v 64 4 47
v 68 0 47
v 68 0 -49
v 0 1.8 47
v 1 4.05 47
v 1 4.05 -49
v 3 4.95 47
v 3 4.95 -49
v 5 5.4 47
v 5 5.4 -49
v 7 5.4 47
v 7 5.4 -49
v 11 4.95 47
v 11 4.95 -49
v 19 4 47
v 19 4 -49
v 64 4 47
v 64 4 -49
v 7 0 47
v 19 4 47
v 68 0 47
v 11 4.95 47
v 6 0.9 47
v 7 5.4 47
v 5 1.35 47
v 5 5.4 47
v 3 4.95 47
v 1 4.05 47
v 0 1.8 47
v 7 0 -49
v 68 0 -49
v 19 4 -49
v 11 4.95 -49
v 6 0.9 -49
v 5 1.35 -49
v 7 5.4 -49
v 5 5.4 -49
v 3 4.95 -49
v 1 4.05 -49
v 0 1.8 -49
v 5 1.35 -49
v 0 1.8 -49
v 0 1.8 47
v 6 0.9 -49
v 5 1.35 47
v 7 0 -49
v 6 0.9 47
v 64 4 -49
v 0 1.8 -49
v 64 4 47
v 64 4 -49
v 7 0 47
vt 0.8361 0
vt 1 0
vt 1 1
vt 0 0
vt 0.06524 0
vt 0.06524 1
vt 0.1014 0
vt 0.1014 1
vt 0.13 0
vt 0.13 1
vt 0.1556 0
vt 0.1556 1
vt 0.2084 0
vt 0.2084 1
vt 0.3115 0
vt 0.3115 1
vt 0.8361 0
vt 0.8361 1
vt 0 0.25
vt 1 0.5
vt 0 1
vt 1 0.5
vt 0 0.5
vt 1 0.5
vt 0.125 0
vt 1 0.5
vt 1 0.5
vt 0.5 0
vt 1 1
vt 0 0.5
vt 0 1
vt 1 0.5
vt 1 0.5
vt 0 0.5
vt 0.125 0
vt 1 0.5
vt 1 0.5
vt 1 0.5
vt 0.5 0
vt 1 1
vt 0.5 0
vt 1 0
vt 1 1
vt 0.5 0
vt 0.5 1
vt 0 0
vt 0.5 1
vt 0.8361 1
vt 0 1
vt 1 1
vt 1 1
vt 0 1
vn 0.7071 0.7071 0
vn 0.7071 0.7071 0
vn 0.7071 0.7071 0
vn -0.9138 0.4061 0
vn -0.6436 0.7654 0
vn -0.6436 0.7654 0
vn -0.3085 0.9512 0
vn -0.3085 0.9512 0
vn -0.1056 0.9944 0
vn -0.1056 0.9944 0
vn 0.05531 0.9985 0
vn 0.05531 0.9985 0
vn 0.1149 0.9934 0
vn 0.1149 0.9934 0
vn 0.05906 0.9983 0
vn 0.05906 0.9983 0
vn 0 1 0
vn 0 1 0
vn 0 0 1
vn 0 0 1
vn 0 0 1
vn 0 0 1
vn 0 0 1
vn 0 0 1
vn 0 0 1
vn 0 0 1
vn 0 0 1
vn 0 0 1
vn 0 0 1
vn 0 0 -1
vn 0 0 -1
vn 0 0 -1
vn 0 0 -1
vn 0 0 -1
vn 0 0 -1
vn 0 0 -1
vn 0 0 -1
vn 0 0 -1
vn 0 0 -1
vn 0 0 -1
vn -0.2341 -0.9722 0
vn -0.08964 -0.996 0
vn -0.08964 -0.996 0
vn -0.5296 -0.8482 0
vn -0.2341 -0.9722 0
vn -0.669 -0.7433 0
vn -0.5296 -0.8482 0
vn 0.7071 0.7071 0
vn -0.9138 0.4061 0
vn 0 0 1
vn 0 0 -1
vn -0.669 -0.7433 0
f 1/1/1 2/2/2 3/3/3 48/48/48
f 4/4/4 5/5/5 6/6/6 49/49/49
f 5/5/5 7/7/7 8/8/8 6/6/6
f 7/7/7 9/9/9 10/10/10 8/8/8
f 9/9/9 11/11/11 12/12/12 10/10/10
f 11/11/11 13/13/13 14/14/14 12/12/12
f 13/13/13 15/15/15 16/16/16 14/14/14
f 15/15/15 17/17/17 18/18/18 16/16/16
f 19/19/19 21/21/21 20/20/20
f 19/19/19 20/20/20 22/22/22
f 23/23/23 19/19/19 22/22/22 24/24/24
f 25/25/25 24/24/24 26/26/26
f 25/25/25 26/26/26 27/27/27
f 25/25/25 27/27/27 28/28/28
f 28/28/28 29/29/29 25/25/25
f 30/30/30 32/32/32 31/31/31
f 30/30/30 33/33/33 32/32/32
f 34/34/34 36/36/36 33/33/33 30/30/30
f 35/35/35 36/36/36 34/34/34
f 35/35/35 38/38/38 37/37/37
f 35/35/35 39/39/39 38/38/38
f 39/39/39 35/35/35 40/40/40
f 41/41/41 45/45/45 43/43/43 42/42/42
f 44/44/44 47/47/47 45/45/45 41/41/41
f 46/46/46 52/52/52 47/47/47 44/44/44
f 20/20/20 21/21/21 50/50/50
f 25/25/25 23/23/23 24/24/24
f 31/31/31 32/32/32 51/51/51
f 35/35/35 37/37/37 36/36/36
usemtl New material 001
v 2 -2 -51
v 2 -2 49
v -2 -2 -51
v -2 -2 49
v -5 -1 -51
v -5 -1 49
v 6 0 49
v 6 0 -51
v 5 -1 -51
v 5 -1 49
v -6 0 -51
v -70 0 -51
v -70 0 49
v -6 0 49
v 70 0 -51
v 70 0 49
v -70 -2 49
v -7 -2 49
v -6 0 49
v -70 0 49
v -6 -3 49
v -5 -1 49
v -3 -4 49
v -2 -2 49
v 3 -4 49
v 2 -2 49
v 6 -3 49
v 5 -1 49
v 7 -2 49
v 6 0 49
v 70 -2 49
v 70 0 49
v 70 -2 -51
v 70 0 -51
v 7 -2 -51
v 6 0 -51
v 5 -1 -51
v 6 -3 -51
v 3 -4 -51
v -3 -4 -51
v -2 -2 -51
v 2 -2 -51
v -6 -3 -51
v -5 -1 -51
v -7 -2 -51
v -6 0 -51
v -70 -2 -51
v -70 0 -51
v -70 -2 49
v -70 0 49
v -70 0 -51
v -70 -2 -51
v 70 0 49
v 70 -2 49
v 70 -2 -51
v 70 0 -51
v 3 -4 49
v 3 -4 -51
v -3 -4 49
v -3 -4 -51
v -6 -3 49
v -6 -3 -51
v 70 -2 49
v 70 -2 -51
v -70 -2 -51
v -7 -2 -51
v -7 -2 49
v -70 -2 49
v 6 -3 -51
v 6 -3 49
v 7 -2 -51
v 7 -2 49
vt 0.663 0.6942
vt 0.4393 0.5971
vt 0.663 0.2201
vt 0.4093 0.1297
vt 0.326 0.4112
vt 0.7271 0.2842
vt 0.7609 0.2207
vt 0.6004 0.4582
vt 0.606 0.4214
vt 0.8607 0.1756
vt 0.326 0.1702
vt 0.326 0.3558
vt 0.6847 0.2455
vt 0.7165 0.06383
vt 0.163 0.4679
vt 0.639 0.2639
vt 0 0
vt 0 0.5
vt 1 0.5
vt 1 0
vt 0 1
vt 0.5 0.5
vt 0.5 0.5
vt 1 0
vt 0 0.5
vt 1 0.5
vt 0 0.5
vt 1 0.5
vt 0 0.5
vt 1 0.5
vt 0 1
vt 1 1
vt 0 0
vt 1 0
vt 0 0.5
vt 1 0.5
vt 0.5 0.5
vt 0 1
vt 0.5 0.5
vt 0 0.5
vt 1 0.5
vt 1 0
vt 0 0.5
vt 1 0.5
vt 0 0.5
vt 1 0.5
vt 0 1
vt 1 1
vt 0.8351 0.2216
vt 0.878 0.1779
vt 0.9206 0.4915
vt 0.9289 0.4915
vt 0.7987 0.1319
vt 0.8752 0.3478
vt 0.9501 0.4915
vt 0.9584 0.4915
vt 0.7317 0.2818
vt 0.477 0.5275
vt 0.5871 0.3863
vt 0.3388 0.806
vt 0.7197 0.2765
vt 0.6039 0.6488
vt 0.8752 0.3478
vt 0.3702 0.9373
vt 0.4865 0.6972
vt 0.754 0.5769
vt 0.7331 0.1807
vt 0.4175 0.2681
vt 0.326 0.3666
vt 0.8681 0.1833
vt 0.3481 0.6529
vt 0.7977 0.4202
vn -0.1602 0.9871 0
vn -0.1602 0.9871 0
vn 0.1602 0.9871 0
vn 0.1602 0.9871 0
vn 0.5257 0.8507 0
vn 0.5257 0.8507 0
vn -0.3827 0.9239 0
vn -0.3827 0.9239 0
vn -0.5257 0.8507 0
vn -0.5257 0.8507 0
vn 0.3827 0.9239 0
vn 0 1 0
vn 0 1 0
vn 0.3827 0.9239 0
vn 0 1 0
vn 0 1 0
vn 0 0 1
vn 0 0 1
vn 0 0 1
vn 0 0 1
vn 0 0 1
vn 0 0 1
vn 0 0 1
vn 0 0 1
vn 0 0 1
vn 0 0 1
vn 0 0 1
vn 0 0 1
vn 0 0 1
vn 0 0 1
vn 0 0 1
vn 0 0 1
vn 0 0 -1
vn 0 0 -1
vn 0 0 -1
vn 0 0 -1
vn 0 0 -1
vn 0 0 -1
vn 0 0 -1
vn 0 0 -1
vn 0 0 -1
vn 0 0 -1
vn 0 0 -1
vn 0 0 -1
vn 0 0 -1
vn 0 0 -1
vn 0 0 -1
vn 0 0 -1
vn -1 0 0
vn -1 0 0
vn -1 0 0
vn -1 0 0
vn 1 0 0
vn 1 0 0
vn 1 0 0
vn 1 0 0
vn 0.1602 -0.9871 0
vn 0.1602 -0.9871 0
vn -0.1602 -0.9871 0
vn -0.1602 -0.9871 0
vn -0.5257 -0.8507 0
vn -0.5257 -0.8507 0
vn 0 -1 0
vn 0 -1 0
vn 0 -1 0
vn -0.3827 -0.9239 0
vn -0.3827 -0.9239 0
vn 0 -1 0
vn 0.5257 -0.8507 0
vn 0.5257 -0.8507 0
vn 0.3827 -0.9239 0
vn 0.3827 -0.9239 0
f 53/53/53 55/55/55 56/56/56 54/54/54
f 58/58/58 56/56/56 55/55/55 57/57/57
f 66/66/66 58/58/58 57/57/57 63/63/63
f 60/60/60 61/61/61 62/62/62 59/59/59
f 54/54/54 62/62/62 61/61/61 53/53/53
f 65/65/65 66/66/66 63/63/63 64/64/64
f 59/59/59 68/68/68 67/67/67 60/60/60
f 69/69/69 70/70/70 72/72/72
f 70/70/70 73/73/73 74/74/74
f 75/75/75 76/76/76 74/74/74 73/73/73
f 75/75/75 77/77/77 78/78/78
f 80/80/80 78/78/78 77/77/77 79/79/79
f 79/79/79 81/81/81 80/80/80
f 81/81/81 83/83/83 84/84/84
f 85/85/85 87/87/87 86/86/86
f 87/87/87 90/90/90 89/89/89
f 91/91/91 94/94/94 89/89/89 90/90/90
f 91/91/91 92/92/92 93/93/93
f 96/96/96 93/93/93 92/92/92 95/95/95
f 95/95/95 97/97/97 96/96/96
f 97/97/97 99/99/99 100/100/100
f 103/103/103 104/104/104 101/101/101 102/102/102
f 107/107/107 108/108/108 105/105/105 106/106/106
f 112/112/112 110/110/110 109/109/109 111/111/111
f 114/114/114 112/112/112 111/111/111 113/113/113
f 118/118/118 114/114/114 113/113/113 119/119/119
f 123/123/123 116/116/116 115/115/115 124/124/124
f 119/119/119 120/120/120 117/117/117 118/118/118
f 122/122/122 109/109/109 110/110/110 121/121/121
f 124/124/124 122/122/122 121/121/121 123/123/123
f 70/70/70 71/71/71 72/72/72
f 70/70/70 74/74/74 71/71/71
f 75/75/75 78/78/78 76/76/76
f 81/81/81 82/82/82 80/80/80
f 81/81/81 84/84/84 82/82/82
f 87/87/87 88/88/88 86/86/86
f 87/87/87 89/89/89 88/88/88
f 91/91/91 93/93/93 94/94/94
f 97/97/97 98/98/98 96/96/96
f 97/97/97 100/100/100 98/98/98
usemtl New material 002
v 6.852 -0.07602 46.83
v 6.703 -0.152 47
v 5.818 0.621 47
v 4.895 1.034 47
v 6.852 -0.07602 47.17
v 7 0 47.33
v 6 0.9 47.33
v 7.148 0.07602 47.17
v 7.297 0.152 47
v 7 0 46.67
v 5 1.35 47.33
v 6.182 1.179 47
v 6 0.9 46.67
v 5 1.35 46.67
v 0 1.633 47.17
v 0 1.8 47.33
v 5.105 1.666 47
v -6.852 -0.07602 46.83
v -6.703 -0.152 47
v 0 1.633 46.83
v 0 1.467 47
v -6.852 -0.07602 47.17
v -7 0 47.33
v -5.818 0.621 47
v -7.148 0.07602 47.17
v -7.297 0.152 47
v -6 0.9 47.33
v -6.182 1.179 47
v -7 0 46.67
v -6 0.9 46.67
v -5.105 1.666 47
v -5 1.35 46.67
v -4.895 1.034 47
v -5 1.35 47.33
v 0 1.967 47.17
v 0 2.133 47
v 0 1.967 46.83
v 0 1.8 46.67
vt 0.3579 0.3267
vt 0.2975 0.3267
vt 0.3402 0.348
vt 0.2042 0.5236
vt 0.1976 0.2872
vt 0.258 0.3445
vt 0.4492 0.2286
vt 0.3579 0.4412
vt 0.3579 0.4985
vt 0.3579 0.4412
vt 0.3354 0.3016
vt 0.6539 0.3093
vt 0.5555 0.2206
vt 0.2962 0.2532
vt 0.9985 0.7847
vt 0.5776 0.8412
vt 0.546 0.1487
vt 0.3579 0.3267
vt 0.2975 0.3267
vt 0.9985 0.6702
vt 0.9985 0.723
vt 0.1976 0.2872
vt 0.258 0.3445
vt 0.3185 0.1648
vt 0.3579 0.4412
vt 0.3579 0.4985
vt 0.4492 0.3568
vt 0.6794 0.1246
vt 0.3579 0.4412
vt 0.5638 0.3694
vt 0.2395 0.04958
vt 0.2962 0.2532
vt 0.2033 0.5565
vt 0.3354 0.3016
vt 0.1178 0.8582
vt 0.07796 0.8582
vt 0.03879 0.8582
vt 0.4993 0.7445
vn -0.4855 -0.5473 -0.6817
vn -0.6575 -0.7534 0
vn -0.5696 -0.799 0.1927
vn -0.196 -0.9757 0.09755
vn -0.4855 -0.5473 0.6817
vn 0 0 1
vn 0 0 1
vn 0.4917 0.5394 0.6836
vn 0.6777 0.7353 0
vn 0 0 -1
vn 0 0 1
vn 0.5614 0.8214 0.1001
vn 0 0 -1
vn 0 0 -1
vn 0 -0.7071 0.7071
vn 0 0 1
vn 0.3033 0.9332 -0.1929
vn 0.4855 -0.5473 -0.6817
vn 0.6575 -0.7534 0
vn 0 -0.7071 -0.7071
vn -0.02918 -0.9805 -0.1942
vn 0.4855 -0.5473 0.6817
vn 0 0 1
vn 0.5073 -0.812 0.2888
vn -0.4917 0.5394 0.6836
vn -0.6777 0.7353 0
vn 0.06335 0.04499 0.997
vn -0.4966 0.8464 -0.1923
vn 0 0 -1
vn -0.06335 -0.04499 -0.997
vn -0.1959 0.962 -0.1903
vn 0 0 -1
vn 0.2162 -0.9753 -0.04588
vn 0 0 1
vn 0 0.7071 0.7071
vn -0.01441 0.9236 -0.383
vn 0 0.7071 -0.7071
vn -0.04491 -0.001009 -0.999
f 137/137/137 134/134/134 125/125/125
f 126/126/126 127/127/127 125/125/125
f 137/137/137 125/125/125 127/127/127
f 138/138/138 137/137/137 127/127/127 128/128/128
f 144/144/144 138/138/138 128/128/128
f 138/138/138 144/144/144 162/162/162
f 128/128/128 145/145/145 144/144/144
f 127/127/127 126/126/126 129/129/129
f 130/130/130 131/131/131 129/129/129
f 127/127/127 129/129/129 131/131/131
f 131/131/131 130/130/130 132/132/132
f 133/133/133 136/136/136 132/132/132
f 131/131/131 132/132/132 136/136/136
f 134/134/134 137/137/137 136/136/136
f 135/135/135 128/128/128 127/127/127 131/131/131
f 141/141/141 135/135/135 131/131/131 136/136/136
f 141/141/141 136/136/136 137/137/137 138/138/138
f 139/139/139 128/128/128 135/135/135
f 128/128/128 139/139/139 145/145/145
f 135/135/135 140/140/140 139/139/139
f 159/159/159 135/135/135 141/141/141
f 135/135/135 159/159/159 140/140/140
f 141/141/141 160/160/160 159/159/159
f 138/138/138 161/161/161 160/160/160
f 138/138/138 162/162/162 161/161/161
f 154/154/154 142/142/142 153/153/153
f 143/143/143 142/142/142 148/148/148
f 154/154/154 148/148/148 142/142/142
f 156/156/156 157/157/157 148/148/148 154/154/154
f 144/144/144 157/157/157 156/156/156
f 156/156/156 162/162/162 144/144/144
f 157/157/157 144/144/144 145/145/145
f 148/148/148 146/146/146 143/143/143
f 147/147/147 146/146/146 151/151/151
f 148/148/148 151/151/151 146/146/146
f 151/151/151 149/149/149 147/147/147
f 150/150/150 149/149/149 152/152/152
f 151/151/151 152/152/152 149/149/149
f 153/153/153 150/150/150 152/152/152
f 148/148/148 157/157/157 158/158/158 151/151/151
f 151/151/151 158/158/158 155/155/155 152/152/152
f 155/155/155 156/156/156 154/154/154 152/152/152
f 139/139/139 158/158/158 157/157/157
f 157/157/157 145/145/145 139/139/139
f 158/158/158 139/139/139 140/140/140
f 159/159/159 155/155/155 158/158/158
f 158/158/158 140/140/140 159/159/159
f 155/155/155 159/159/159 160/160/160
f 156/156/156 155/155/155 160/160/160
f 156/156/156 161/161/161 162/162/162
f 134/134/134 136/136/136 133/133/133
f 138/138/138 160/160/160 141/141/141
f 153/153/153 152/152/152 154/154/154
f 156/156/156 160/160/160 161/161/161
usemtl Default
v -64 4 47
v -68 0 47
v -68 0 -49
v 0 1.8 47
v -1 4.05 47
v -1 4.05 -49
v -3 4.95 47
v -3 4.95 -49
v -5 5.4 47
v -5 5.4 -49
v -7 5.4 47
v -7 5.4 -49
v -11 4.95 47
v -11 4.95 -49
v -19 4 47
v -19 4 -49
v -64 4 47
v -64 4 -49
v -7 0 47
v -19 4 47
v -68 0 47
v -11 4.95 47
v -6 0.9 47
v -7 5.4 47
v -5 1.35 47
v -5 5.4 47
v -3 4.95 47
v -1 4.05 47
v 0 1.8 47
v -7 0 -49
v -68 0 -49
v -19 4 -49
v -11 4.95 -49
v -6 0.9 -49
v -5 1.35 -49
v -7 5.4 -49
v -5 5.4 -49
v -3 4.95 -49
v -1 4.05 -49
v 0 1.8 -49
v -5 1.35 -49
v 0 1.8 -49
v 0 1.8 47
v -6 0.9 -49
v -5 1.35 47
v -7 0 -49
v -6 0.9 47
v -64 4 -49
v 0 1.8 -49
v -64 4 47
v -64 4 -49
v -7 0 47
vt 0.8361 0
vt 1 0
vt 1 1
vt 0 0
vt 0.06524 0
vt 0.06524 1
vt 0.1014 0
vt 0.1014 1
vt 0.13 0
vt 0.13 1
vt 0.1556 0
vt 0.1556 1
vt 0.2084 0
vt 0.2084 1
vt 0.3115 0
vt 0.3115 1
vt 0.8361 0
vt 0.8361 1
vt 0 0.25
vt 1 0.5
vt 0 1
vt 1 0.5
vt 0 0.5
vt 1 0.5
vt 0.125 0
vt 1 0.5
vt 1 0.5
vt 0.5 0
vt 1 1
vt 0 0.5
vt 0 1
vt 1 0.5
vt 1 0.5
vt 0 0.5
vt 0.125 0
vt 1 0.5
vt 1 0.5
vt 1 0.5
vt 0.5 0
vt 1 1
vt 0.5 0
vt 1 0
vt 1 1
vt 0.5 0
vt 0.5 1
vt 0 0
vt 0.5 1
vt 0.8361 1
vt 0 1
vt 1 1
vt 1 1
vt 0 1
vn -0.7071 0.7071 0
vn -0.7071 0.7071 0
vn -0.7071 0.7071 0
vn 0.9138 0.4061 0
vn 0.6436 0.7654 0
vn 0.6436 0.7654 0
vn 0.3085 0.9512 0
vn 0.3085 0.9512 0
vn 0.1056 0.9944 0
vn 0.1056 0.9944 0
vn -0.05531 0.9985 0
vn -0.05531 0.9985 0
vn -0.1149 0.9934 0
vn -0.1149 0.9934 0
vn -0.05906 0.9983 0
vn -0.05906 0.9983 0
vn 0 1 0
vn 0 1 0
vn 0 0 1
vn 0 0 1
vn 0 0 1
vn 0 0 1
vn 0 0 1
vn 0 0 1
vn 0 0 1
vn 0 0 1
vn 0 0 1
vn 0 0 1
vn 0 0 1
vn 0 0 -1
vn 0 0 -1
vn 0 0 -1
vn 0 0 -1
vn 0 0 -1
vn 0 0 -1
vn 0 0 -1
vn 0 0 -1
vn 0 0 -1
vn 0 0 -1
vn 0 0 -1
vn 0.2341 -0.9722 0
vn 0.08964 -0.996 0
vn 0.08964 -0.996 0
vn 0.5296 -0.8482 0
vn 0.2341 -0.9722 0
vn 0.669 -0.7433 0
vn 0.5296 -0.8482 0
vn -0.7071 0.7071 0
vn 0.9138 0.4061 0
vn 0 0 1
vn 0 0 -1
vn 0.669 -0.7433 0
f 163/163/163 210/210/210 165/165/165 164/164/164
f 166/166/166 211/211/211 168/168/168 167/167/167
f 167/167/167 168/168/168 170/170/170 169/169/169
f 169/169/169 170/170/170 172/172/172 171/171/171
f 171/171/171 172/172/172 174/174/174 173/173/173
f 173/173/173 174/174/174 176/176/176 175/175/175
f 175/175/175 176/176/176 178/178/178 177/177/177
f 177/177/177 178/178/178 180/180/180 179/179/179
f 181/181/181 182/182/182 183/183/183
f 181/181/181 184/184/184 182/182/182
f 184/184/184 181/181/181 185/185/185 186/186/186
f 187/187/187 188/188/188 186/186/186
f 187/187/187 189/189/189 188/188/188
f 187/187/187 190/190/190 189/189/189
f 190/190/190 187/187/187 191/191/191
f 192/192/192 193/193/193 194/194/194
f 192/192/192 194/194/194 195/195/195
f 195/195/195 198/198/198 196/196/196 192/192/192
f 197/197/197 196/196/196 198/198/198
f 197/197/197 199/199/199 200/200/200
f 197/197/197 200/200/200 201/201/201
f 201/201/201 202/202/202 197/197/197
f 203/203/203 204/204/204 205/205/205 207/207/207
f 206/206/206 203/203/203 207/207/207 209/209/209
f 208/208/208 206/206/206 209/209/209 214/214/214
f 182/182/182 212/212/212 183/183/183
f 187/187/187 186/186/186 185/185/185
f 193/193/193 213/213/213 194/194/194
f 197/197/197 198/198/198 199/199/199
