# Rhino

mtllib cocoon.mtl
g object_1
usemtl New material 001
v 0.1369 0.5283 1
v 0.1369 0.5283 0.5
v 0.4905 0.1748 1
v 0.4905 0.8819 1
v 0.4905 0.1748 0.5
v 0.4905 0.8819 0.5
v 0.844 0.5283 1
v 0.844 0.5283 0.5
vt 0.4717 0
vt 0.4717 0.5
vt 0.8252 0
vt 0.8252 0.5
vt 0.1748 0
vt 0.1748 0.5
vt 0.5283 0
vt 0.5283 0.5
vt 0.5283 0
vt 0.5283 0.5
vt 0.8819 0
vt 0.8819 0.5
vt 0.1181 0
vt 0.1181 0.5
vt 0.4717 0
vt 0.4717 0.5
vt 0.844 0.5283
vt 0.4905 0.1748
vt 0.1369 0.5283
vt 0.4905 0.8819
vt 0.156 0.5283
vt 0.5095 0.1748
vt 0.8631 0.5283
vt 0.5095 0.8819
vn 0.7071 -0.7071 0
vn 0.7071 -0.7071 0
vn 0.7071 -0.7071 0
vn 0.7071 -0.7071 0
vn -0.7071 -0.7071 0
vn -0.7071 -0.7071 0
vn -0.7071 -0.7071 0
vn -0.7071 -0.7071 0
vn -0.7071 0.7071 0
vn -0.7071 0.7071 0
vn -0.7071 0.7071 0
vn -0.7071 0.7071 0
vn 0.7071 0.7071 0
vn 0.7071 0.7071 0
vn 0.7071 0.7071 0
vn 0.7071 0.7071 0
vn 0 0 1
vn 0 0 1
vn 0 0 1
vn 0 0 1
vn 0 0 -1
vn 0 0 -1
vn 0 0 -1
vn 0 0 -1
f 7/1/1 3/3/3 5/4/4 8/2/2
f 3/5/5 1/7/7 2/8/8 5/6/6
f 1/9/9 4/11/11 6/12/12 2/10/10
f 4/13/13 7/15/15 8/16/16 6/14/14
f 3/18/18 7/17/17 4/20/20
f 4/20/20 1/19/19 3/18/18
f 5/22/22 6/24/24 8/21/21
f 6/24/24 5/22/22 2/23/23
g object_2
usemtl New material 001
v 0.01716 0.7323 1
v 0.01716 0.7323 0.7
v 0.2293 0.5202 1
v 0.2293 0.9445 1
v 0.2293 0.5202 0.7
v 0.2293 0.9445 0.7
v 0.4414 0.7323 1
v 0.4414 0.7323 0.7
vt 0.5202 0
vt 0.5202 0.3
vt 0.7323 0
vt 0.7323 0.3
vt 0.7323 0
vt 0.7323 0.3
vt 0.9445 0
vt 0.9445 0.3
vt 0.05553 0
vt 0.05553 0.3
vt 0.2677 0
vt 0.2677 0.3
vt 0.2677 0
vt 0.2677 0.3
vt 0.4798 0
vt 0.4798 0.3
vt 0.2293 0.5202
vt 0.01716 0.7323
vt 0.2293 0.9445
vt 0.4414 0.7323
vt 0.7707 0.5202
vt 0.9828 0.7323
vt 0.7707 0.9445
vt 0.5586 0.7323
vn -0.7071 -0.7071 0
vn -0.7071 -0.7071 0
vn -0.7071 -0.7071 0
vn -0.7071 -0.7071 0
vn -0.7071 0.7071 0
vn -0.7071 0.7071 0
vn -0.7071 0.7071 0
vn -0.7071 0.7071 0
vn 0.7071 0.7071 0
vn 0.7071 0.7071 0
vn 0.7071 0.7071 0
vn 0.7071 0.7071 0
vn 0.7071 -0.7071 0
vn 0.7071 -0.7071 0
vn 0.7071 -0.7071 0
vn 0.7071 -0.7071 0
vn 0 0 1
vn 0 0 1
vn 0 0 1
vn 0 0 1
vn 0 0 -1
vn 0 0 -1
vn 0 0 -1
vn 0 0 -1
f 11/25/25 9/27/27 10/28/28 13/26/26
f 9/29/29 12/31/31 14/32/32 10/30/30
f 12/33/33 15/35/35 16/36/36 14/34/34
f 15/37/37 11/39/39 13/40/40 16/38/38
f 9/42/42 11/41/41 15/44/44
f 15/44/44 12/43/43 9/42/42
f 10/46/46 16/48/48 13/45/45
f 16/48/48 10/46/46 14/47/47
g object_3
usemtl New material 001
v 0.599 0.7347 1
v 0.599 0.7347 0.8
v 0.7404 0.5933 1
v 0.7404 0.8761 1
v 0.7404 0.5933 0.8
v 0.7404 0.8761 0.8
v 0.8818 0.7347 1
v 0.8818 0.7347 0.8
vt 0.5933 0
vt 0.5933 0.2
vt 0.7347 0
vt 0.7347 0.2
vt 0.7347 0
vt 0.7347 0.2
vt 0.8761 0
vt 0.8761 0.2
vt 0.1239 0
vt 0.1239 0.2
vt 0.2653 0
vt 0.2653 0.2
vt 0.2653 0
vt 0.2653 0.2
vt 0.4067 0
vt 0.4067 0.2
vt 0.7404 0.5933
vt 0.599 0.7347
vt 0.7404 0.8761
vt 0.8818 0.7347
vt 0.2596 0.5933
vt 0.401 0.7347
vt 0.2596 0.8761
vt 0.1182 0.7347
vn -0.7071 -0.7071 0
vn -0.7071 -0.7071 0
vn -0.7071 -0.7071 0
vn -0.7071 -0.7071 0
vn -0.7071 0.7071 0
vn -0.7071 0.7071 0
vn -0.7071 0.7071 0
vn -0.7071 0.7071 0
vn 0.7071 0.7071 0
vn 0.7071 0.7071 0
vn 0.7071 0.7071 0
vn 0.7071 0.7071 0
vn 0.7071 -0.7071 0
vn 0.7071 -0.7071 0
vn 0.7071 -0.7071 0
vn 0.7071 -0.7071 0
vn 0 0 1
vn 0 0 1
vn 0 0 1
vn 0 0 1
vn 0 0 -1
vn 0 0 -1
vn 0 0 -1
vn 0 0 -1
f 19/49/49 17/51/51 18/52/52 21/50/50
f 17/53/53 20/55/55 22/56/56 18/54/54
f 20/57/57 23/59/59 24/60/60 22/58/58
f 23/61/61 19/63/63 21/64/64 24/62/62
f 17/66/66 19/65/65 23/68/68
f 23/68/68 20/67/67 17/66/66
f 18/70/70 24/72/72 21/69/69
f 24/72/72 18/70/70 22/71/71
g object_4
usemtl New material 001
v 0.3338 0.8377 1
v 0.3338 0.8377 0.8
v 0.4753 0.6963 1
v 0.4753 0.9791 1
v 0.4753 0.6963 0.8
v 0.4753 0.9791 0.8
v 0.6167 0.8377 1
v 0.6167 0.8377 0.8
vt 0.6963 0
vt 0.6963 0.2
vt 0.8377 0
vt 0.8377 0.2
vt 0.8377 0
vt 0.8377 0.2
vt 0.9791 0
vt 0.9791 0.2
vt 0.02089 0
vt 0.02089 0.2
vt 0.1623 0
vt 0.1623 0.2
vt 0.1623 0
vt 0.1623 0.2
vt 0.3037 0
vt 0.3037 0.2
vt 0.4753 0.6963
vt 0.3338 0.8377
vt 0.4753 0.9791
vt 0.6167 0.8377
vt 0.5247 0.6963
vt 0.6662 0.8377
vt 0.5247 0.9791
vt 0.3833 0.8377
vn -0.7071 -0.7071 0
vn -0.7071 -0.7071 0
vn -0.7071 -0.7071 0
vn -0.7071 -0.7071 0
vn -0.7071 0.7071 0
vn -0.7071 0.7071 0
vn -0.7071 0.7071 0
vn -0.7071 0.7071 0
vn 0.7071 0.7071 0
vn 0.7071 0.7071 0
vn 0.7071 0.7071 0
vn 0.7071 0.7071 0
vn 0.7071 -0.7071 0
vn 0.7071 -0.7071 0
vn 0.7071 -0.7071 0
vn 0.7071 -0.7071 0
vn 0 0 1
vn 0 0 1
vn 0 0 1
vn 0 0 1
vn 0 0 -1
vn 0 0 -1
vn 0 0 -1
vn 0 0 -1
f 27/73/73 25/75/75 26/76/76 29/74/74
f 25/77/77 28/79/79 30/80/80 26/78/78
f 28/81/81 31/83/83 32/84/84 30/82/82
f 31/85/85 27/87/87 29/88/88 32/86/86
f 25/90/90 27/89/89 31/92/92
f 31/92/92 28/91/91 25/90/90
f 26/94/94 32/96/96 29/93/93
f 32/96/96 26/94/94 30/95/95
g object_5
usemtl New material 001
v 0.56 0.4681 1
v 0.56 0.4681 0.7
v 0.7721 0.256 1
v 0.7721 0.6803 1
v 0.7721 0.256 0.7
v 0.7721 0.6803 0.7
v 0.9842 0.4681 1
v 0.9842 0.4681 0.7
vt 0.256 0
vt 0.256 0.3
vt 0.4681 0
vt 0.4681 0.3
vt 0.4681 0
vt 0.4681 0.3
vt 0.6803 0
vt 0.6803 0.3
vt 0.3197 0
vt 0.3197 0.3
vt 0.5319 0
vt 0.5319 0.3
vt 0.5319 0
vt 0.5319 0.3
vt 0.744 0
vt 0.744 0.3
vt 0.7721 0.256
vt 0.56 0.4681
vt 0.7721 0.6803
vt 0.9842 0.4681
vt 0.2279 0.256
vt 0.44 0.4681
vt 0.2279 0.6803
vt 0.01578 0.4681
vn -0.7071 -0.7071 0
vn -0.7071 -0.7071 0
vn -0.7071 -0.7071 0
vn -0.7071 -0.7071 0
vn -0.7071 0.7071 0
vn -0.7071 0.7071 0
vn -0.7071 0.7071 0
vn -0.7071 0.7071 0
vn 0.7071 0.7071 0
vn 0.7071 0.7071 0
vn 0.7071 0.7071 0
vn 0.7071 0.7071 0
vn 0.7071 -0.7071 0
vn 0.7071 -0.7071 0
vn 0.7071 -0.7071 0
vn 0.7071 -0.7071 0
vn 0 0 1
vn 0 0 1
vn 0 0 1
vn 0 0 1
vn 0 0 -1
vn 0 0 -1
vn 0 0 -1
vn 0 0 -1
f 35/97/97 33/99/99 34/100/100 37/98/98
f 33/101/101 36/103/103 38/104/104 34/102/102
f 36/105/105 39/107/107 40/108/108 38/106/106
f 39/109/109 35/111/111 37/112/112 40/110/110
f 33/114/114 35/113/113 39/116/116
f 39/116/116 36/115/115 33/114/114
f 34/118/118 40/120/120 37/117/117
f 40/120/120 34/118/118 38/119/119
g object_6
usemtl New material 001
v 0.4751 0.287 1
v 0.4751 0.287 0.8
v 0.6165 0.1456 1
v 0.6165 0.4285 1
v 0.6165 0.1456 0.8
v 0.6165 0.4285 0.8
v 0.7579 0.287 1
v 0.7579 0.287 0.8
vt 0.1456 0
vt 0.1456 0.2
vt 0.287 0
vt 0.287 0.2
vt 0.287 0
vt 0.287 0.2
vt 0.4285 0
vt 0.4285 0.2
vt 0.5715 0
vt 0.5715 0.2
vt 0.713 0
vt 0.713 0.2
vt 0.713 0
vt 0.713 0.2
vt 0.8544 0
vt 0.8544 0.2
vt 0.6165 0.1456
vt 0.4751 0.287
vt 0.6165 0.4285
vt 0.7579 0.287
vt 0.3835 0.1456
vt 0.5249 0.287
vt 0.3835 0.4285
vt 0.2421 0.287
vn -0.7071 -0.7071 0
vn -0.7071 -0.7071 0
vn -0.7071 -0.7071 0
vn -0.7071 -0.7071 0
vn -0.7071 0.7071 0
vn -0.7071 0.7071 0
vn -0.7071 0.7071 0
vn -0.7071 0.7071 0
vn 0.7071 0.7071 0
vn 0.7071 0.7071 0
vn 0.7071 0.7071 0
vn 0.7071 0.7071 0
vn 0.7071 -0.7071 0
vn 0.7071 -0.7071 0
vn 0.7071 -0.7071 0
vn 0.7071 -0.7071 0
vn 0 0 1
vn 0 0 1
vn 0 0 1
vn 0 0 1
vn 0 0 -1
vn 0 0 -1
vn 0 0 -1
vn 0 0 -1
f 43/121/121 41/123/123 42/124/124 45/122/122
f 41/125/125 44/127/127 46/128/128 42/126/126
f 44/129/129 47/131/131 48/132/132 46/130/130
f 47/133/133 43/135/135 45/136/136 48/134/134
f 41/138/138 43/137/137 47/140/140
f 47/140/140 44/139/139 41/138/138
f 42/142/142 48/144/144 45/141/141
f 48/144/144 42/142/142 46/143/143
g object_7
usemtl New material 001
v 0.03782 0.3049 1
v 0.03782 0.3049 0.65
v 0.2853 0.05736 1
v 0.2853 0.5523 1
v 0.2853 0.05736 0.65
v 0.2853 0.5523 0.65
v 0.5328 0.3049 1
v 0.5328 0.3049 0.65
vt 0.05736 0
vt 0.05736 0.35
vt 0.3049 0
vt 0.3049 0.35
vt 0.3049 0
vt 0.3049 0.35
vt 0.5523 0
vt 0.5523 0.35
vt 0.4477 0
vt 0.4477 0.35
vt 0.6951 0
vt 0.6951 0.35
vt 0.6951 0
vt 0.6951 0.35
vt 0.9426 0
vt 0.9426 0.35
vt 0.2853 0.05736
vt 0.03782 0.3049
vt 0.2853 0.5523
vt 0.5328 0.3049
vt 0.7147 0.05736
vt 0.9622 0.3049
vt 0.7147 0.5523
vt 0.4672 0.3049
vn -0.7071 -0.7071 0
vn -0.7071 -0.7071 0
vn -0.7071 -0.7071 0
vn -0.7071 -0.7071 0
vn -0.7071 0.7071 0
vn -0.7071 0.7071 0
vn -0.7071 0.7071 0
vn -0.7071 0.7071 0
vn 0.7071 0.7071 0
vn 0.7071 0.7071 0
vn 0.7071 0.7071 0
vn 0.7071 0.7071 0
vn 0.7071 -0.7071 0
vn 0.7071 -0.7071 0
vn 0.7071 -0.7071 0
vn 0.7071 -0.7071 0
vn 0 0 1
vn 0 0 1
vn 0 0 1
vn 0 0 1
vn 0 0 -1
vn 0 0 -1
vn 0 0 -1
vn 0 0 -1
f 51/145/145 49/147/147 50/148/148 53/146/146
f 49/149/149 52/151/151 54/152/152 50/150/150
f 52/153/153 55/155/155 56/156/156 54/154/154
f 55/157/157 51/159/159 53/160/160 56/158/158
f 49/162/162 51/161/161 55/164/164
f 55/164/164 52/163/163 49/162/162
f 50/166/166 56/168/168 53/165/165
f 56/168/168 50/166/166 54/167/167
g object_8
usemtl New material 001
v 0.01481 0.5566 1
v 0.01481 0.5566 0.8
v 0.1562 0.4152 1
v 0.1562 0.6981 1
v 0.1562 0.4152 0.8
v 0.1562 0.6981 0.8
v 0.2977 0.5566 1
v 0.2977 0.5566 0.8
vt 0.4152 0
vt 0.4152 0.2
vt 0.5566 0
vt 0.5566 0.2
vt 0.5566 0
vt 0.5566 0.2
vt 0.6981 0
vt 0.6981 0.2
vt 0.3019 0
vt 0.3019 0.2
vt 0.4434 0
vt 0.4434 0.2
vt 0.4434 0
vt 0.4434 0.2
vt 0.5848 0
vt 0.5848 0.2
vt 0.1562 0.4152
vt 0.01481 0.5566
vt 0.1562 0.6981
vt 0.2977 0.5566
vt 0.8438 0.4152
vt 0.9852 0.5566
vt 0.8438 0.6981
vt 0.7023 0.5566
vn -0.7071 -0.7071 0
vn -0.7071 -0.7071 0
vn -0.7071 -0.7071 0
vn -0.7071 -0.7071 0
vn -0.7071 0.7071 0
vn -0.7071 0.7071 0
vn -0.7071 0.7071 0
vn -0.7071 0.7071 0
vn 0.7071 0.7071 0
vn 0.7071 0.7071 0
vn 0.7071 0.7071 0
vn 0.7071 0.7071 0
vn 0.7071 -0.7071 0
vn 0.7071 -0.7071 0
vn 0.7071 -0.7071 0
vn 0.7071 -0.7071 0
vn 0 0 1
vn 0 0 1
vn 0 0 1
vn 0 0 1
vn 0 0 -1
vn 0 0 -1
vn 0 0 -1
vn 0 0 -1
f 59/169/169 57/171/171 58/172/172 61/170/170
f 57/173/173 60/175/175 62/176/176 58/174/174
f 60/177/177 63/179/179 64/180/180 62/178/178
f 63/181/181 59/183/183 61/184/184 64/182/182
f 57/186/186 59/185/185 63/188/188
f 63/188/188 60/187/187 57/186/186
f 58/190/190 64/192/192 61/189/189
f 64/192/192 58/190/190 62/191/191
g object_9
usemtl New material 001
v 0.6909 0.2297 1
v 0.6909 0.2297 0.85
v 0.797 0.1236 1
v 0.797 0.3358 1
v 0.797 0.1236 0.85
v 0.797 0.3358 0.85
v 0.9031 0.2297 1
v 0.9031 0.2297 0.85
vt 0.1236 0
vt 0.1236 0.15
vt 0.2297 0
vt 0.2297 0.15
vt 0.2297 0
vt 0.2297 0.15
vt 0.3358 0
vt 0.3358 0.15
vt 0.6642 0
vt 0.6642 0.15
vt 0.7703 0
vt 0.7703 0.15
vt 0.7703 0
vt 0.7703 0.15
vt 0.8764 0
vt 0.8764 0.15
vt 0.797 0.1236
vt 0.6909 0.2297
vt 0.797 0.3358
vt 0.9031 0.2297
vt 0.203 0.1236
vt 0.3091 0.2297
vt 0.203 0.3358
vt 0.09695 0.2297
vn -0.7071 -0.7071 0
vn -0.7071 -0.7071 0
vn -0.7071 -0.7071 0
vn -0.7071 -0.7071 0
vn -0.7071 0.7071 0
vn -0.7071 0.7071 0
vn -0.7071 0.7071 0
vn -0.7071 0.7071 0
vn 0.7071 0.7071 0
vn 0.7071 0.7071 0
vn 0.7071 0.7071 0
vn 0.7071 0.7071 0
vn 0.7071 -0.7071 0
vn 0.7071 -0.7071 0
vn 0.7071 -0.7071 0
vn 0.7071 -0.7071 0
vn 0 0 1
vn 0 0 1
vn 0 0 1
vn 0 0 1
vn 0 0 -1
vn 0 0 -1
vn 0 0 -1
vn 0 0 -1
f 67/193/193 65/195/195 66/196/196 69/194/194
f 65/197/197 68/199/199 70/200/200 66/198/198
f 68/201/201 71/203/203 72/204/204 70/202/202
f 71/205/205 67/207/207 69/208/208 72/206/206
f 65/210/210 67/209/209 71/212/212
f 71/212/212 68/211/211 65/210/210
f 66/214/214 72/216/216 69/213/213
f 72/216/216 66/214/214 70/215/215
