# Rhino

mtllib essentializer_2.mtl
usemtl Default
v 1 0.666667 0
v 1 1 0
v 1 1 0.333333
v 1 0.666667 0
v 1 1 0.333333
v 0.666667 1 0
v 1 1 0
v 0.666667 1 0
v 1 1 0.333333
v 1 0.666667 0
v 0.666667 1 0
v 1 1 0
vt 0 0
vt 1 0
vt 1 1
vt 1 0
vt 1 1
vt 0 0
vt 0 0
vt 1 0
vt 0 1
vt 1 0
vt 0 1
vt 0 0
vn 1 0 0
vn 1 0 0
vn 1 0 0
vn -0.57735 -0.57735 0.57735
vn -0.57735 -0.57735 0.57735
vn -0.57735 -0.57735 0.57735
vn 0 1 0
vn 0 1 0
vn 0 1 0
vn 0 0 -1
vn 0 0 -1
vn 0 0 -1
f 2/2/2 3/3/3 1/1/1
f 5/5/5 6/6/6 4/4/4
f 8/8/8 9/9/9 7/7/7
f 11/11/11 12/12/12 10/10/10
usemtl Default
v 1 0.666667 1
v 1 1 1
v 0.666667 1 1
v 1 0.666667 1
v 0.666667 1 1
v 1 1 0.666667
v 1 1 1
v 1 1 0.666667
v 0.666667 1 1
v 1 0.666667 1
v 1 1 0.666667
v 1 1 1
vt 0 0
vt 1 0
vt 1 1
vt 1 0
vt 1 1
vt 0 0
vt 0 0
vt 1 0
vt 0 1
vt 1 0
vt 0 1
vt 0 0
vn 0 0 1
vn 0 0 1
vn 0 0 1
vn -0.57735 -0.57735 -0.57735
vn -0.57735 -0.57735 -0.57735
vn -0.57735 -0.57735 -0.57735
vn 0 1 0
vn 0 1 0
vn 0 1 0
vn 1 0 0
vn 1 0 0
vn 1 0 0
f 14/14/14 15/15/15 13/13/13
f 17/17/17 18/18/18 16/16/16
f 20/20/20 21/21/21 19/19/19
f 23/23/23 24/24/24 22/22/22
usemtl Default
v 0 0.666667 0
v 0 1 0
v 0.333333 1 0
v 0 0.666667 0
v 0.333333 1 0
v 0 1 0.333333
v 0 1 0
v 0 1 0.333333
v 0.333333 1 0
v 0 0.666667 0
v 0 1 0.333333
v 0 1 0
vt 0 0
vt 1 0
vt 1 1
vt 1 0
vt 1 1
vt 0 0
vt 0 0
vt 1 0
vt 0 1
vt 1 0
vt 0 1
vt 0 0
vn 0 0 -1
vn 0 0 -1
vn 0 0 -1
vn 0.57735 -0.57735 0.57735
vn 0.57735 -0.57735 0.57735
vn 0.57735 -0.57735 0.57735
vn 0 1 0
vn 0 1 0
vn 0 1 0
vn -1 0 0
vn -1 0 0
vn -1 0 0
f 26/26/26 27/27/27 25/25/25
f 29/29/29 30/30/30 28/28/28
f 32/32/32 33/33/33 31/31/31
f 35/35/35 36/36/36 34/34/34
usemtl Default
v 0 0.666667 1
v 0 1 1
v 0 1 0.666667
v 0 0.666667 1
v 0 1 0.666667
v 0.333333 1 1
v 0 1 1
v 0.333333 1 1
v 0 1 0.666667
v 0 0.666667 1
v 0.333333 1 1
v 0 1 1
vt 0 0
vt 1 0
vt 1 1
vt 1 0
vt 1 1
vt 0 0
vt 0 0
vt 1 0
vt 0 1
vt 1 0
vt 0 1
vt 0 0
vn -1 0 0
vn -1 0 0
vn -1 0 0
vn 0.57735 -0.57735 -0.57735
vn 0.57735 -0.57735 -0.57735
vn 0.57735 -0.57735 -0.57735
vn 0 1 0
vn 0 1 0
vn 0 1 0
vn 0 0 1
vn 0 0 1
vn 0 0 1
f 38/38/38 39/39/39 37/37/37
f 41/41/41 42/42/42 40/40/40
f 44/44/44 45/45/45 43/43/43
f 47/47/47 48/48/48 46/46/46
