# Rhino

mtllib essentializer_2.mtl
usemtl Default
v 0 -0.19245 0.272166
v 0 0 0
v -0.235702 -0.19245 -0.136083
v 0 -0.19245 0.272166
v -0.235702 -0.19245 -0.136083
v 0.235702 -0.19245 -0.136083
v 0 0 0
v 0.235702 -0.19245 -0.136083
v -0.235702 -0.19245 -0.136083
v 0 -0.19245 0.272166
v 0.235702 -0.19245 -0.136083
v 0 0 0
vt 0 0
vt 1 0
vt 1 1
vt 1 0
vt 1 1
vt 0 0
vt 0 0
vt 1 0
vt 0 1
vt 1 0
vt 0 1
vt 0 0
vn -0.707107 0.57735 0.408248
vn -0.707107 0.57735 0.408248
vn -0.707107 0.57735 0.408248
vn 0 -1 -8.07723e-08
vn 0 -1 -8.07723e-08
vn 0 -1 -8.07723e-08
vn 0 0.57735 -0.816497
vn 0 0.57735 -0.816497
vn 0 0.57735 -0.816497
vn 0.707107 0.57735 0.408248
vn 0.707107 0.57735 0.408248
vn 0.707107 0.57735 0.408248
f 2/2/2 3/3/3 1/1/1
f 5/5/5 6/6/6 4/4/4
f 8/8/8 9/9/9 7/7/7
f 11/11/11 12/12/12 10/10/10
